<svg width="428" height="406" viewBox="0 0 428 406" fill="none" xmlns="http://www.w3.org/2000/svg">
<g clip-path="url(#clip0_749_425)">
<path d="M403.27 376.44H370.15V376.69H403.27V376.44Z" fill="#EBEBEB"/>
<path d="M226.6 373.3H213.71V373.55H226.6V373.3Z" fill="#EBEBEB"/>
<path d="M303.04 374.36H275.9V374.61H303.04V374.36Z" fill="#EBEBEB"/>
<path d="M369.15 367.15H313.04V367.4H369.15V367.15Z" fill="#EBEBEB"/>
<path d="M32.3601 378.72H5.83008V378.97H32.3601V378.72Z" fill="#EBEBEB"/>
<path d="M64.2603 378.72H41.2603V378.97H64.2603V378.72Z" fill="#EBEBEB"/>
<path d="M145.18 373.18H84.3701V373.43H145.18V373.18Z" fill="#EBEBEB"/>
<path d="M420.43 172.11C423.564 161.277 423.215 149.733 419.43 139.11C423.449 133.358 426.113 126.77 427.223 119.841C428.333 112.912 427.86 105.822 425.84 99.1014C423.82 92.3812 420.304 86.2056 415.557 81.0375C410.81 75.8695 404.955 71.8431 398.43 69.2602C396.522 55.5062 391.078 42.4827 382.629 31.4631C374.18 20.4435 363.016 11.8051 350.229 6.39241C337.441 0.979765 323.468 -1.02182 309.676 0.583381C295.883 2.18858 282.743 7.3456 271.54 15.5502C265.909 9.63719 258.641 5.54006 250.667 3.78383C242.693 2.0276 234.377 2.69226 226.783 5.69264C219.189 8.69302 212.664 13.8925 208.044 20.6247C203.424 27.357 200.919 35.3154 200.85 43.4802C190.299 45.5967 180.481 50.4271 172.366 57.4949C164.251 64.5627 158.118 73.6239 154.573 83.7847C151.027 93.9455 150.191 104.855 152.148 115.437C154.105 126.019 158.786 135.909 165.73 144.13C162.334 150.255 160.361 157.067 159.961 164.059C159.56 171.051 160.74 178.043 163.414 184.516C166.089 190.989 170.188 196.775 175.407 201.446C180.626 206.116 186.831 209.549 193.56 211.49C201.416 213.766 209.733 213.925 217.67 211.95C228.427 226.773 244.432 236.936 262.422 240.366C280.413 243.796 299.034 240.236 314.49 230.41C322.02 247.9 328.2 274.14 314.89 299.87C363.24 295.13 398.15 248.76 391.03 206.27C398.102 203.03 404.39 198.3 409.464 192.404C414.539 186.508 418.279 179.586 420.43 172.11Z" fill="#EBEBEB"/>
<path d="M327.69 290.27C327.558 290.271 327.428 290.246 327.306 290.196C327.184 290.146 327.073 290.073 326.98 289.98C326.851 289.852 326.76 289.691 326.716 289.515C326.672 289.339 326.677 289.154 326.73 288.98C333.54 265.26 327.33 242.52 320.93 227.62L317.68 220.07L310.74 224.48C296.795 233.348 279.992 236.564 263.758 233.472C247.523 230.38 233.079 221.213 223.37 207.84L220.59 204.01L216.01 205.15C208.527 207.013 200.663 206.647 193.385 204.1C186.106 201.552 179.731 196.932 175.044 190.809C170.356 184.686 167.56 177.327 167 169.636C166.44 161.945 168.139 154.258 171.89 147.52L174.22 143.3L171.11 139.62C164.949 132.33 160.794 123.561 159.055 114.175C157.317 104.79 158.055 95.114 161.196 86.101C164.338 77.088 169.775 69.0496 176.97 62.7785C184.166 56.5075 192.872 52.2205 202.23 50.3402L207.79 49.2202L207.85 43.5602C207.901 36.7859 209.975 30.1813 213.806 24.5936C217.636 19.006 223.048 14.6899 229.348 12.1992C235.648 9.70838 242.549 9.15641 249.165 10.6141C255.78 12.0717 261.81 15.4725 266.48 20.3802L270.72 24.8202L275.72 21.2002C285.943 13.7014 297.938 8.98529 310.531 7.51331C323.123 6.04134 335.882 7.86397 347.559 12.8028C359.236 17.7417 369.431 25.6276 377.145 35.6888C384.86 45.75 389.83 57.6417 391.57 70.2002L392.14 74.2002L395.93 75.7002C401.472 77.8941 406.445 81.3147 410.476 85.7053C414.508 90.0959 417.492 95.3425 419.206 101.051C420.919 106.76 421.318 112.783 420.371 118.668C419.425 124.553 417.158 130.147 413.74 135.03L411.68 137.98L412.89 141.38C416.829 152.472 416.47 164.637 411.883 175.477C407.296 186.317 398.814 195.045 388.11 199.94L383.24 202.18L384.13 207.46C387.13 225.59 381.7 245.39 369.13 261.79C358.751 275.388 344.337 285.353 327.95 290.26C327.864 290.276 327.777 290.279 327.69 290.27ZM318.14 217.62C318.236 217.606 318.334 217.606 318.43 217.62C318.568 217.663 318.694 217.736 318.801 217.832C318.908 217.929 318.993 218.048 319.05 218.18L322.76 226.8C329.14 241.63 335.31 264.09 329.13 287.73C344.408 282.762 357.812 273.261 367.56 260.49C379.78 244.49 385.1 225.29 382.16 207.71L381.16 201.71C381.122 201.494 381.156 201.271 381.257 201.075C381.358 200.88 381.521 200.724 381.72 200.63L387.28 198.08C397.509 193.391 405.613 185.043 409.998 174.68C414.382 164.316 414.729 152.687 410.97 142.08L409.59 138.2C409.537 138.049 409.522 137.888 409.544 137.729C409.567 137.571 409.627 137.42 409.72 137.29L412.07 133.91C415.316 129.275 417.469 123.965 418.369 118.379C419.269 112.793 418.892 107.075 417.265 101.656C415.639 96.236 412.806 91.2552 408.979 87.0872C405.153 82.9192 400.431 79.6723 395.17 77.5902L390.83 75.8702C390.666 75.8049 390.522 75.6974 390.414 75.5587C390.305 75.42 390.234 75.2549 390.21 75.0802L389.56 70.4702C387.874 58.2495 383.043 46.6763 375.539 36.8846C368.035 27.0929 358.116 19.4185 346.754 14.6135C335.392 9.80855 322.976 8.03775 310.724 9.47463C298.471 10.9115 286.802 15.5068 276.86 22.8102L271.19 26.9402C270.995 27.0833 270.755 27.151 270.514 27.1307C270.273 27.1105 270.048 27.0038 269.88 26.8302L265.03 21.7602C262.035 18.6361 258.439 16.149 254.46 14.4478C250.48 12.7467 246.198 11.8665 241.87 11.8602C233.433 11.8599 225.337 15.1915 219.344 21.13C213.352 27.0686 209.946 35.1336 209.87 43.5702L209.8 50.0502C209.805 50.2842 209.727 50.5124 209.581 50.6951C209.435 50.8778 209.229 51.0035 209 51.0502L202.65 52.3302C193.637 54.1428 185.252 58.2725 178.321 64.3125C171.39 70.3524 166.152 78.0941 163.124 86.7746C160.096 95.4551 159.382 104.775 161.052 113.815C162.723 122.856 166.72 131.305 172.65 138.33L176.2 142.54C176.331 142.695 176.411 142.886 176.431 143.088C176.451 143.29 176.408 143.493 176.31 143.67L173.65 148.49C172.276 150.964 171.182 153.584 170.39 156.3C168.561 162.64 168.432 169.35 170.018 175.755C171.604 182.16 174.847 188.035 179.423 192.789C183.999 197.543 189.745 201.009 196.085 202.838C202.425 204.668 209.135 204.796 215.54 203.21L220.78 201.91C220.973 201.862 221.176 201.872 221.363 201.94C221.55 202.008 221.713 202.13 221.83 202.29L225 206.66C234.4 219.643 248.404 228.546 264.15 231.548C279.895 234.55 296.192 231.424 309.71 222.81L317.64 217.81C317.786 217.703 317.959 217.637 318.14 217.62Z" fill="white"/>
<path d="M257.56 124.13L230.76 119.94L231.17 117.26C231.639 113.477 232.749 109.801 234.45 106.39C235.943 103.69 237.924 101.29 240.29 99.3103C242.697 97.3103 247.937 93.8903 256.01 89.0503C260.3 86.5303 262.65 83.9903 263.01 81.4003C263.248 80.3001 263.25 79.1623 263.017 78.0612C262.785 76.9601 262.322 75.9205 261.66 75.0103C260.36 73.3403 258.15 72.2603 255.05 71.7803C253.523 71.4903 251.953 71.5183 250.437 71.8624C248.921 72.2065 247.493 72.8594 246.24 73.7803C243.707 75.6536 241.707 79.2936 240.24 84.7003L213.4 77.0503C215.907 67.1369 220.827 59.6069 228.16 54.4603C235.494 49.3136 245.74 47.7669 258.9 49.8203C269.154 51.4136 277.097 54.8403 282.73 60.1003C290.384 67.2203 293.46 75.6003 291.96 85.2403C291.289 89.3033 289.522 93.1063 286.85 96.2403C284.064 99.6136 278.84 103.447 271.18 107.74C265.847 110.774 262.38 113.33 260.78 115.41C258.991 118 257.884 120.999 257.56 124.13ZM228.73 126.94L257.44 131.41L253.5 156.73L224.79 152.26L228.73 126.94Z" fill="white"/>
<path d="M325.96 163.36L311.08 151.36L312.29 149.87C313.918 147.73 315.896 145.881 318.14 144.4C320.009 143.286 322.066 142.524 324.21 142.15C328.604 141.638 333.026 141.408 337.45 141.46C340.957 141.46 343.29 140.737 344.45 139.29C344.989 138.706 345.397 138.012 345.645 137.257C345.894 136.501 345.977 135.701 345.89 134.91C345.517 133.153 344.482 131.606 343 130.59C342.17 129.873 341.2 129.336 340.152 129.012C339.104 128.689 338 128.586 336.91 128.71C334.697 128.95 332.187 130.46 329.38 133.24L315.71 119.05C320.75 113.89 326.417 111.04 332.71 110.5C339.003 109.96 345.81 112.65 353.13 118.57C358.823 123.177 362.453 128.087 364.02 133.3C366.167 140.36 365.077 146.564 360.75 151.91C358.909 154.163 356.489 155.871 353.75 156.85C350.85 157.91 346.303 158.397 340.11 158.31C335.78 158.31 332.76 158.59 331.04 159.31C329.04 160.223 327.295 161.614 325.96 163.36ZM307.37 154.85L323.31 167.76L311.92 181.82L295.98 168.94L307.37 154.85Z" fill="white"/>
<path d="M330.12 76.7404L323.68 67.9404L324.56 67.2904C325.765 66.3546 327.117 65.6247 328.56 65.1304C329.751 64.7873 330.996 64.6686 332.23 64.7804C334.721 65.1301 337.187 65.6445 339.61 66.3204C341.55 66.8204 342.94 66.7604 343.79 66.1404C344.17 65.8951 344.494 65.5724 344.74 65.1932C344.987 64.8141 345.15 64.3872 345.22 63.9404C345.259 62.9133 344.901 61.9106 344.22 61.1404C343.865 60.627 343.409 60.1918 342.879 59.8616C342.349 59.5314 341.757 59.3132 341.14 59.2204C339.89 59.0404 338.29 59.5004 336.34 60.6204L330.87 50.8304C334.009 48.7994 337.788 48.0015 341.48 48.5904C345.027 49.2104 348.383 51.6771 351.55 55.9904C354.01 59.3638 355.297 62.5938 355.41 65.6804C355.57 67.5616 355.238 69.4519 354.447 71.1664C353.657 72.8808 352.434 74.3604 350.9 75.4604C349.571 76.426 348.006 77.0134 346.37 77.1604C343.749 77.2121 341.138 76.8164 338.65 75.9904C336.997 75.4271 335.256 75.163 333.51 75.2104C332.271 75.4318 331.106 75.9575 330.12 76.7404ZM321.12 69.3604L328.02 78.7804L319.71 84.8604L312.81 75.4504L321.12 69.3604Z" fill="white"/>
<path d="M81.7102 201.51C73.2573 201.496 64.9653 199.198 57.7102 194.86C47.5602 188.86 40.3902 179.44 37.9502 169.07C30.8737 168.577 24.222 165.513 19.2486 160.455C14.2752 155.397 11.3236 148.694 10.9502 141.61C8.81987 140.132 6.93662 138.327 5.37019 136.26C1.5653 131.412 -0.314587 125.329 0.0914588 119.179C0.497505 113.029 3.16086 107.246 7.5702 102.94C5.89698 95.8299 6.0732 88.4094 8.08204 81.3864C10.0909 74.3634 13.8654 67.9721 19.0456 62.8219C24.2258 57.6718 30.639 53.9346 37.6736 51.9667C44.7082 49.9988 52.1296 49.8658 59.2302 51.5804C60.7794 48.042 63.2226 44.9677 66.3197 42.6595C69.4168 40.3514 73.0613 38.8888 76.8948 38.4157C80.7283 37.9425 84.619 38.4751 88.1844 39.961C91.7498 41.4468 94.8672 43.8349 97.2302 46.8904C98.3269 48.3087 99.2501 49.853 99.9802 51.4904C105.571 50.5716 111.305 51.1008 116.633 53.0275C121.961 54.9542 126.707 58.2141 130.418 62.4963C134.128 66.7784 136.68 71.9399 137.829 77.4883C138.977 83.0367 138.685 88.7869 136.98 94.1904C140.641 97.3089 143.332 101.411 144.733 106.012C146.134 110.612 146.188 115.518 144.887 120.148C143.587 124.777 140.986 128.938 137.395 132.135C133.803 135.333 129.369 137.434 124.62 138.19C122.478 146.296 117.718 153.468 111.08 158.59C106.902 161.834 102.101 164.181 96.9752 165.485C91.8496 166.789 86.51 167.023 81.2902 166.17C81.1902 175.88 83.4402 189.05 94.2902 198.47C94.3949 198.564 94.4731 198.684 94.517 198.817C94.5609 198.95 94.5689 199.093 94.5402 199.23C94.5104 199.368 94.4433 199.495 94.3463 199.597C94.2494 199.7 94.1262 199.773 93.9902 199.81C89.9973 200.952 85.8632 201.525 81.7102 201.51ZM49.1002 51.9404C42.8595 51.9594 36.7047 53.3953 31.0997 56.1396C25.4948 58.8839 20.5862 62.865 16.7441 67.7827C12.9019 72.7005 10.2266 78.4264 8.9198 84.5288C7.61301 90.6311 7.70888 96.9505 9.2002 103.01C9.23452 103.146 9.23124 103.288 9.19071 103.422C9.15019 103.556 9.07395 103.677 8.97019 103.77C4.69999 107.778 2.08447 113.238 1.63844 119.077C1.19242 124.916 2.9482 130.711 6.56019 135.32C8.14863 137.361 10.0606 139.128 12.2202 140.55C12.3248 140.618 12.412 140.709 12.4746 140.817C12.5371 140.925 12.5733 141.046 12.5802 141.17C12.8512 148.03 15.6788 154.539 20.5069 159.419C25.335 164.299 31.8142 167.196 38.6702 167.54C38.8417 167.55 39.0053 167.616 39.1355 167.728C39.2657 167.84 39.3552 167.992 39.3902 168.16C41.6002 178.33 48.5902 187.57 58.5502 193.51C68.6419 199.597 80.7312 201.444 92.1802 198.65C81.4502 188.65 79.4502 174.99 79.7102 165.19C79.7143 165.077 79.7427 164.965 79.7932 164.864C79.8438 164.762 79.9154 164.672 80.0034 164.6C80.0914 164.528 80.1937 164.476 80.3035 164.447C80.4133 164.417 80.5281 164.412 80.6402 164.43C89.8589 166.174 99.3954 164.334 107.304 159.287C115.213 154.24 120.898 146.366 123.2 137.27C123.236 137.118 123.317 136.979 123.433 136.874C123.549 136.768 123.695 136.701 123.85 136.68C128.399 136.052 132.665 134.109 136.126 131.091C139.586 128.072 142.091 124.11 143.332 119.689C144.573 115.268 144.497 110.581 143.113 106.202C141.729 101.824 139.097 97.9447 135.54 95.0404C135.417 94.9408 135.327 94.8062 135.283 94.6543C135.238 94.5025 135.241 94.3407 135.29 94.1904C137.03 88.9792 137.38 83.4043 136.307 78.0162C135.234 72.6281 132.774 67.613 129.17 63.4661C125.567 59.3192 120.944 56.1838 115.758 54.3695C110.572 52.5552 105.003 52.1246 99.6002 53.1204C99.4232 53.1547 99.2398 53.1266 99.0812 53.0409C98.9226 52.9552 98.7986 52.8172 98.7302 52.6504C97.1638 48.8506 94.5012 45.6033 91.0819 43.3228C87.6626 41.0423 83.6415 39.8319 79.5315 39.8458C75.4215 39.8598 71.4088 41.0975 68.005 43.4011C64.6013 45.7048 61.9608 48.97 60.4202 52.7804C60.3471 52.9548 60.2147 53.0978 60.0462 53.1838C59.8778 53.2698 59.6844 53.2934 59.5002 53.2504C56.1024 52.3783 52.6081 51.9382 49.1002 51.9404Z" fill="#E6E6E6"/>
<path d="M53.9604 117.94L40.1504 121.19L39.8304 119.81C39.3076 117.883 39.1215 115.88 39.2804 113.89C39.47 112.291 39.9548 110.742 40.7104 109.32C42.4013 106.512 44.2719 103.817 46.3104 101.25C47.9004 99.1802 48.5404 97.4902 48.2204 96.1602C48.1222 95.5796 47.9009 95.0267 47.5715 94.5386C47.2421 94.0505 46.8121 93.6385 46.3104 93.3302C45.1134 92.7472 43.7372 92.6504 42.4704 93.0602C41.6736 93.2214 40.9187 93.5454 40.2528 94.0116C39.5869 94.4779 39.0244 95.0766 38.6004 95.7702C37.7404 97.1802 37.4904 99.3302 37.8404 102.24L23.3704 103.78C22.5249 98.9967 23.4719 94.0694 26.0304 89.9402C28.5704 86.0002 33.2371 83.2335 40.0304 81.6402C45.3104 80.3935 49.8337 80.4902 53.6004 81.9302C58.7071 83.8702 61.847 87.3268 63.0204 92.3002C63.5081 94.4073 63.4043 96.6083 62.7204 98.6602C62.0537 100.84 60.277 103.727 57.3904 107.32C55.3904 109.84 54.2137 111.76 53.8604 113.08C53.4863 114.683 53.5207 116.354 53.9604 117.94ZM40.5404 124.94L55.3404 121.46L58.3704 134.5L43.6204 137.94L40.5404 124.94Z" fill="#EBEBEB"/>
<path d="M89.12 88.7301L79.54 85.8101L79.83 84.8101C80.197 83.4497 80.7921 82.1614 81.59 81.0001C82.2734 80.0905 83.1214 79.3171 84.09 78.7201C86.1179 77.6206 88.2158 76.6552 90.37 75.8301C92.07 75.1634 93.07 74.3534 93.37 73.4001C93.5168 73.0102 93.5784 72.5935 93.5508 72.1778C93.5232 71.7621 93.407 71.3571 93.21 70.9901C92.683 70.2114 91.8779 69.6639 90.96 69.4601C90.4162 69.2788 89.841 69.2109 89.2699 69.2608C88.6988 69.3107 88.1441 69.4772 87.64 69.7501C86.3413 70.6409 85.3715 71.9339 84.88 73.4301L75.46 69.2401C76.6501 66.021 78.9858 63.3541 82.02 61.7501C84.9666 60.2368 88.7933 60.2001 93.5 61.6401C96.6709 62.438 99.5239 64.1819 101.68 66.6401C102.839 67.9291 103.64 69.4988 104.005 71.1933C104.37 72.8879 104.286 74.6484 103.76 76.3001C103.308 77.7596 102.464 79.0671 101.32 80.0801C99.4154 81.5602 97.2756 82.7095 94.99 83.4801C93.4692 83.9836 92.048 84.7484 90.79 85.7401C89.9943 86.5831 89.4205 87.6105 89.12 88.7301ZM78.44 88.2601L88.7 91.3801L85.95 100.44L75.68 97.3201L78.44 88.2601Z" fill="#EBEBEB"/>
<path d="M203.37 405.5C310.452 405.5 397.26 400.432 397.26 394.18C397.26 387.928 310.452 382.86 203.37 382.86C96.2875 382.86 9.47998 387.928 9.47998 394.18C9.47998 400.432 96.2875 405.5 203.37 405.5Z" fill="#F5F5F5"/>
<path d="M110.98 225.38L110.06 224.99C110.783 223.402 111.271 221.718 111.51 219.99L112.51 220.1C112.259 221.925 111.744 223.704 110.98 225.38ZM110.59 213.94C109.659 211.862 108.212 210.057 106.387 208.697C104.561 207.336 102.417 206.467 100.16 206.17L100.32 205.17C102.741 205.492 105.039 206.428 106.996 207.89C108.953 209.351 110.504 211.29 111.5 213.52L110.59 213.94Z" fill="#407BFF"/>
<path d="M105.37 235.44L95.5096 239.94L95.0696 238.94C94.3953 237.581 93.959 236.117 93.7796 234.61C93.6845 233.383 93.8168 232.149 94.1696 230.97C95.0232 228.622 96.0253 226.331 97.1696 224.11C98.0496 222.33 98.273 220.967 97.8396 220.02C97.6789 219.601 97.4307 219.221 97.1117 218.906C96.7928 218.59 96.4102 218.346 95.9896 218.19C95.0078 217.94 93.9678 218.073 93.0796 218.56C92.5089 218.803 91.9937 219.16 91.5656 219.608C91.1374 220.057 90.8054 220.589 90.5896 221.17C90.1563 222.337 90.2896 223.983 90.9896 226.11L80.3696 229.43C79.0415 225.97 79.0415 222.14 80.3696 218.68C81.703 215.347 84.7763 212.59 89.5896 210.41C93.3496 208.69 96.7496 208.1 99.7796 208.61C101.636 208.834 103.402 209.538 104.905 210.651C106.408 211.764 107.595 213.249 108.35 214.96C109.025 216.464 109.274 218.124 109.07 219.76C108.587 222.315 107.674 224.77 106.37 227.02C105.493 228.511 104.89 230.147 104.59 231.85C104.548 233.093 104.816 234.327 105.37 235.44ZM96.3696 242.68L106.91 237.94L111.14 247.23L100.6 251.94L96.3696 242.68Z" fill="#407BFF"/>
<path d="M81.0099 257.67L76.0099 264.47L75.3699 263.94C74.3947 263.263 73.5395 262.429 72.8399 261.47C72.3085 260.67 71.932 259.778 71.7299 258.84C71.4068 256.919 71.2164 254.977 71.1599 253.03C71.0799 251.48 70.7099 250.47 70.0599 250.03C69.7867 249.798 69.4661 249.629 69.1207 249.534C68.7752 249.439 68.4132 249.42 68.0599 249.48C67.2947 249.68 66.6358 250.167 66.2199 250.84C65.922 251.221 65.7054 251.659 65.5833 252.126C65.4612 252.594 65.4362 253.082 65.5099 253.56C65.8572 254.839 66.612 255.969 67.6599 256.78L61.6599 263.09C59.4382 261.237 57.9754 258.632 57.5499 255.77C57.1832 253.01 58.2299 249.96 60.6899 246.62C62.2155 244.331 64.3977 242.557 66.9499 241.53C68.2998 240.972 69.772 240.777 71.2207 240.963C72.6694 241.149 74.0444 241.71 75.2099 242.59C76.2445 243.357 77.0473 244.396 77.5299 245.59C78.1717 247.524 78.4828 249.552 78.4499 251.59C78.4154 252.95 78.6254 254.304 79.0699 255.59C79.5325 256.435 80.1995 257.15 81.0099 257.67ZM77.6399 266.03L82.9999 258.75L89.4199 263.48L84.0599 270.76L77.6399 266.03Z" fill="#407BFF"/>
<path d="M187.46 390.58C186.634 390.581 185.825 390.355 185.119 389.926C184.414 389.497 183.84 388.883 183.46 388.15C179.46 380.39 174.39 371.28 165.31 361.42C164.787 360.854 164.42 360.162 164.245 359.412C164.069 358.662 164.092 357.879 164.31 357.14C167.68 345.43 172.98 329.42 173.03 329.26C173.199 328.682 173.483 328.143 173.865 327.677C174.247 327.21 174.719 326.826 175.253 326.546C175.787 326.266 176.372 326.096 176.972 326.047C177.573 325.998 178.178 326.07 178.75 326.259C179.322 326.449 179.85 326.751 180.303 327.149C180.756 327.547 181.124 328.032 181.385 328.575C181.646 329.119 181.796 329.709 181.824 330.311C181.852 330.913 181.759 331.515 181.55 332.08C181.5 332.23 176.93 346.02 173.62 357.23C180.676 365.368 186.665 374.375 191.44 384.03C191.791 384.716 191.96 385.48 191.931 386.249C191.902 387.019 191.676 387.768 191.274 388.425C190.873 389.083 190.31 389.626 189.638 390.003C188.967 390.38 188.21 390.579 187.44 390.58H187.46Z" fill="#407BFF"/>
<path d="M194.93 394.18H160.14L178.58 383.72L194.03 384.32L194.93 394.18Z" fill="#263238"/>
<path d="M191.619 352.033C207.454 347.083 216.964 332.429 212.861 319.304C208.758 306.178 192.595 299.551 176.76 304.501C160.925 309.451 151.415 324.105 155.518 337.23C159.621 350.356 175.784 356.983 191.619 352.033Z" fill="#263238"/>
<path d="M105.02 311.94C103.985 311.936 102.982 311.574 102.183 310.916C101.384 310.258 100.837 309.343 100.634 308.328C100.432 307.312 100.587 306.258 101.073 305.344C101.558 304.429 102.345 303.711 103.3 303.31C104.077 302.985 104.76 302.469 105.284 301.81C105.808 301.151 106.158 300.37 106.3 299.54C106.39 298.564 106.797 297.644 107.46 296.921C108.123 296.198 109.005 295.713 109.97 295.54C111.084 295.313 112.185 295.029 113.27 294.69C119.35 292.92 126.88 290.69 150.58 297.35C173.96 284.28 174.23 259.76 174.23 258.7C174.23 257.512 174.7 256.372 175.537 255.529C176.375 254.686 177.512 254.208 178.7 254.2C179.884 254.2 181.02 254.668 181.861 255.501C182.702 256.335 183.179 257.466 183.19 258.65C183.19 259.96 183.05 290.74 153.19 306.15C152.172 306.678 150.99 306.793 149.89 306.47C127.29 299.95 120.89 301.81 115.82 303.3L114.44 303.7C113.773 305.467 112.751 307.079 111.437 308.436C110.123 309.793 108.545 310.866 106.8 311.59C106.236 311.826 105.631 311.945 105.02 311.94Z" fill="#263238"/>
<path d="M157.45 279.83C148.94 246.01 126.27 158.77 198.92 153.44C264.1 148.65 281.98 235.44 286.33 265.44C288.508 280.62 289.69 295.926 289.87 311.26C289.953 319.017 287.325 326.559 282.439 332.584C277.553 338.609 270.716 342.739 263.11 344.26C227.6 351.48 194 352.5 171.36 343.57C168.386 342.37 165.881 340.24 164.217 337.499C162.554 334.758 161.821 331.552 162.13 328.36C163 318.68 163.02 301.94 157.45 279.83Z" fill="#407BFF"/>
<path opacity="0.1" d="M286.37 265.46C282.27 237.14 266.15 158.46 209.71 153.46C206.491 153.134 203.246 153.768 200.387 155.282C197.527 156.796 195.179 159.124 193.64 161.97C191.12 166.85 191.2 172.76 194.97 178.61C207.37 197.94 237.04 264.61 232.56 300.94C230.56 317.47 220.15 330.67 229.17 349.25C240.572 348.252 251.905 346.582 263.11 344.25C270.717 342.729 277.553 338.599 282.439 332.574C287.325 326.549 289.953 319.007 289.87 311.25C289.702 295.927 288.533 280.631 286.37 265.46Z" fill="black"/>
<path d="M276.61 311.73C276.493 311.73 276.38 311.684 276.296 311.602C276.212 311.52 276.163 311.408 276.16 311.29C275.99 295.976 274.811 280.689 272.63 265.53C261.83 190.87 232.76 153.12 188.53 156.38C188.471 156.384 188.412 156.377 188.356 156.358C188.3 156.339 188.248 156.309 188.203 156.27C188.158 156.231 188.122 156.183 188.096 156.13C188.07 156.077 188.054 156.019 188.05 155.96C188.045 155.841 188.085 155.725 188.164 155.636C188.242 155.546 188.352 155.49 188.47 155.48C233.22 152.18 262.64 190.2 273.47 265.4C275.649 280.6 276.832 295.926 277.01 311.28C277.01 311.4 276.963 311.514 276.879 311.598C276.794 311.683 276.68 311.73 276.56 311.73H276.61Z" fill="#263238"/>
<path d="M275.931 354.425C291.766 349.475 301.276 334.821 297.173 321.696C293.07 308.57 276.907 301.943 261.072 306.893C245.237 311.843 235.727 326.497 239.83 339.622C243.933 352.748 260.096 359.375 275.931 354.425Z" fill="#263238"/>
<path d="M278.67 390.58C277.844 390.582 277.034 390.356 276.328 389.927C275.623 389.499 275.049 388.884 274.67 388.15C270.67 380.39 265.6 371.28 256.51 361.42C255.991 360.852 255.627 360.16 255.452 359.41C255.277 358.661 255.297 357.879 255.51 357.14C258.89 345.43 264.18 329.42 264.24 329.26C264.425 328.701 264.719 328.184 265.104 327.739C265.488 327.294 265.957 326.928 266.483 326.664C267.009 326.4 267.582 326.242 268.169 326.199C268.757 326.157 269.346 326.23 269.905 326.415C270.464 326.6 270.981 326.894 271.426 327.279C271.871 327.663 272.237 328.132 272.501 328.658C272.765 329.184 272.923 329.757 272.966 330.344C273.009 330.931 272.935 331.521 272.75 332.08C272.7 332.23 268.14 346.02 264.83 357.23C271.887 365.366 277.873 374.373 282.64 384.03C282.991 384.716 283.16 385.48 283.131 386.249C283.102 387.019 282.876 387.768 282.475 388.425C282.073 389.083 281.51 389.626 280.839 390.003C280.167 390.38 279.41 390.579 278.64 390.58H278.67Z" fill="#407BFF"/>
<path d="M269.25 253.85C268.247 253.851 267.272 253.515 266.482 252.898C265.692 252.28 265.131 251.415 264.89 250.442C264.648 249.468 264.739 248.442 265.149 247.526C265.559 246.611 266.263 245.859 267.15 245.39C268.01 244.93 287.54 234.26 293.02 208.62C280.02 203.18 256.6 190.89 251.48 184.71C250.976 184.112 250.632 183.397 250.48 182.63C249.889 178.937 250.232 175.155 251.48 171.63L249.12 167.07C248.574 166.009 248.471 164.775 248.835 163.638C249.199 162.502 249.999 161.556 251.06 161.01C252.121 160.464 253.355 160.361 254.492 160.725C255.628 161.089 256.574 161.889 257.12 162.95L260.51 169.51C260.875 170.197 261.054 170.967 261.029 171.744C261.005 172.521 260.777 173.278 260.37 173.94C259.455 175.768 259.067 177.814 259.25 179.85C265.02 185.06 288.25 197.39 299.68 201.62C300.649 201.979 301.464 202.662 301.987 203.553C302.51 204.444 302.709 205.489 302.55 206.51C297.48 239.28 272.41 252.78 271.35 253.34C270.702 253.679 269.981 253.854 269.25 253.85Z" fill="#263238"/>
<path d="M254.94 184.09C254.537 184.088 254.141 183.978 253.795 183.77C253.449 183.563 253.165 183.267 252.972 182.912C252.78 182.557 252.687 182.157 252.702 181.754C252.718 181.351 252.841 180.959 253.06 180.62C253.22 180.38 256.92 174.79 262.56 173.28C262.844 173.204 263.141 173.184 263.433 173.223C263.725 173.261 264.006 173.357 264.261 173.504C264.516 173.651 264.739 173.847 264.918 174.081C265.098 174.314 265.229 174.581 265.305 174.865C265.381 175.149 265.401 175.446 265.362 175.738C265.324 176.029 265.228 176.311 265.081 176.566C264.934 176.821 264.738 177.044 264.505 177.223C264.271 177.402 264.004 177.534 263.72 177.61C259.79 178.67 256.84 183.03 256.82 183.07C256.617 183.383 256.338 183.641 256.01 183.819C255.681 183.997 255.314 184.09 254.94 184.09Z" fill="#263238"/>
<path d="M286.14 394.18H251.35L269.79 383.72L285.24 384.32L286.14 394.18Z" fill="#263238"/>
<path d="M213.288 260.194C226.447 259.028 236.264 248.482 235.216 236.638C234.167 224.793 222.649 216.136 209.49 217.301C196.331 218.467 186.513 229.013 187.562 240.857C188.611 252.702 200.129 261.359 213.288 260.194Z" fill="white"/>
<path d="M208.818 252.387C212.308 251.393 213.67 245.437 211.86 239.084C210.051 232.732 205.755 228.388 202.265 229.382C198.775 230.376 197.413 236.331 199.223 242.684C201.032 249.037 205.328 253.381 208.818 252.387Z" fill="#263238"/>
<path d="M184.17 242.8C199.27 240.86 229.17 232.33 234.1 228.89C230.22 217.53 212.1 207.81 195.98 213.29C181.37 218.22 184.17 242.8 184.17 242.8Z" fill="#263238"/>
<path d="M187.1 250.1C205.85 246.54 230.22 240.56 237.19 236.73C236.76 248.95 233.19 261.34 214.07 265.53C198.43 268.94 187.1 250.1 187.1 250.1Z" fill="#263238"/>
<path d="M171.655 261.857C178.435 257.371 179.329 246.778 173.652 238.197C167.974 229.616 157.876 226.297 151.096 230.782C144.316 235.268 143.422 245.861 149.099 254.442C154.777 263.023 164.875 266.342 171.655 261.857Z" fill="white"/>
<path d="M161.71 246.62C162.84 251.98 161.86 256.45 159.51 256.62C157.16 256.79 154.34 252.56 153.2 247.2C152.06 241.84 153.05 237.38 155.39 237.2C157.73 237.02 160.57 241.26 161.71 246.62Z" fill="#263238"/>
<path d="M143.12 244.57C153.25 245.76 173.37 244.43 176.71 242.57C174.24 232.94 162.26 221.94 151.37 223.34C141.55 224.6 143.12 244.57 143.12 244.57Z" fill="#263238"/>
<path d="M145 250.88C157.59 251.45 174 251.13 178.68 249.36C178.25 258.97 175.73 268.13 162.87 267.98C152.37 267.86 145 250.88 145 250.88Z" fill="#263238"/>
<path d="M217.46 207.24C206.017 207.303 194.826 203.885 185.37 197.44C184.422 196.723 183.798 195.658 183.635 194.481C183.472 193.303 183.783 192.109 184.5 191.16C185.218 190.212 186.282 189.588 187.46 189.425C188.638 189.262 189.832 189.573 190.78 190.29C201.364 197.193 214.204 199.74 226.62 197.4C227.199 197.291 227.793 197.296 228.37 197.416C228.946 197.536 229.493 197.769 229.98 198.1C230.466 198.432 230.883 198.856 231.205 199.348C231.528 199.841 231.751 200.392 231.86 200.97C231.97 201.549 231.965 202.143 231.845 202.72C231.725 203.296 231.492 203.843 231.161 204.33C230.829 204.816 230.405 205.233 229.912 205.556C229.42 205.878 228.869 206.101 228.29 206.21C224.72 206.89 221.095 207.235 217.46 207.24Z" fill="#263238"/>
<path d="M137.25 199.51C136.532 199.507 135.826 199.331 135.189 198.999C134.553 198.666 134.005 198.186 133.592 197.599C133.179 197.012 132.913 196.334 132.815 195.623C132.717 194.912 132.791 194.187 133.03 193.51C135.4 186.89 139.35 182.6 144.75 180.74C154.53 177.37 165.07 183.92 165.52 184.2C166.503 184.846 167.193 185.851 167.442 186.999C167.692 188.148 167.481 189.348 166.855 190.343C166.23 191.338 165.239 192.048 164.095 192.32C162.952 192.593 161.747 192.406 160.74 191.8C158.74 190.53 152.37 187.59 147.64 189.23C144.92 190.18 142.9 192.57 141.47 196.55C141.156 197.417 140.582 198.166 139.827 198.696C139.072 199.226 138.173 199.51 137.25 199.51Z" fill="#263238"/>
<path d="M172.6 275.19C172.475 275.19 172.35 275.17 172.23 275.13C171.891 275.035 171.603 274.808 171.431 274.501C171.258 274.193 171.215 273.83 171.31 273.49C171.708 272.409 172.315 271.416 173.098 270.57C173.881 269.724 174.823 269.041 175.87 268.56C181.01 265.91 188.87 266.46 199.18 270.19C199.347 270.251 199.5 270.343 199.631 270.463C199.762 270.583 199.867 270.727 199.942 270.888C200.016 271.049 200.058 271.223 200.064 271.4C200.071 271.578 200.042 271.754 199.98 271.92C199.921 272.087 199.83 272.24 199.711 272.37C199.592 272.501 199.448 272.606 199.288 272.681C199.128 272.755 198.955 272.797 198.778 272.804C198.602 272.811 198.426 272.782 198.26 272.72C186.43 268.44 180.26 269.36 177.26 270.9C175.762 271.536 174.571 272.731 173.94 274.23C173.854 274.516 173.676 274.765 173.434 274.939C173.191 275.112 172.898 275.201 172.6 275.19Z" fill="#263238"/>
<path d="M130.25 270.26C114.603 271.651 99.3848 276.12 85.4702 283.41C93.1902 281.95 120.82 316.14 127.92 342.5C141.03 337.65 156.31 334.34 172.6 331.75C162.73 304.58 144.68 273.79 130.25 270.26Z" fill="#407BFF"/>
<path opacity="0.6" d="M130.25 270.26C114.603 271.651 99.3848 276.12 85.4702 283.41C93.1902 281.95 120.82 316.14 127.92 342.5C141.03 337.65 156.31 334.34 172.6 331.75C162.73 304.58 144.68 273.79 130.25 270.26Z" fill="white"/>
<path d="M130.25 270.26C113.17 268.33 85.4401 282.63 85.4401 282.63C80.5301 285.76 81.8601 291.63 84.5401 294.12C87.1101 290.43 115.77 280.83 126.54 279.54C121.19 274.58 126.17 270.94 130.25 270.26Z" fill="#407BFF"/>
<path opacity="0.2" d="M130.25 270.26C113.17 268.33 85.4401 282.63 85.4401 282.63C80.5301 285.76 81.8601 291.63 84.5401 294.12C87.1101 290.43 115.77 280.83 126.54 279.54C121.19 274.58 126.17 270.94 130.25 270.26Z" fill="white"/>
<path d="M105.03 311.94C104.286 311.943 103.552 311.762 102.894 311.413C102.237 311.064 101.675 310.558 101.26 309.94C98.0102 304.94 100.04 297.35 100.48 295.87C100.855 294.773 101.64 293.862 102.671 293.331C103.702 292.799 104.899 292.687 106.01 293.018C107.122 293.349 108.063 294.097 108.635 295.106C109.207 296.115 109.367 297.306 109.08 298.43C108.35 300.94 108.2 304.15 108.78 305.03C109.429 306.028 109.656 307.242 109.41 308.407C109.165 309.571 108.467 310.59 107.47 311.24C106.744 311.709 105.895 311.953 105.03 311.94Z" fill="#263238"/>
</g>
<defs>
<clipPath id="clip0_749_425">
<rect width="427.84" height="405.5" fill="white"/>
</clipPath>
</defs>
</svg>
